<?xml version="1.0" encoding="utf-8"?>
<!DOCTYPE svg PUBLIC "-//W3C//DTD SVG 1.1//EN" "http://www.w3.org/Graphics/SVG/1.1/DTD/svg11.dtd">
<svg version="1.1" xmlns="http://www.w3.org/2000/svg" xmlns:xlink="http://www.w3.org/1999/xlink" width="32" height="32" viewBox="0 0 32 32">
    <path fill="#df5349" d="M32 16c0 8.837-7.163 16-16 16s-16-7.163-16-16c0-8.837 7.163-16 16-16s16 7.163 16 16z"></path>
    <path opacity="0.2" fill="#231f20" d="M23.45 8.75c-0.1-0.15-0.25-0.25-0.45-0.25h-8.5c-0.2 0-0.35 0.1-0.45 0.3l-4 8c-0.1 0.15-0.050 0.35 0 0.5 0.1 0.15 0.25 0.25 0.45 0.25h2.75l-4.2 9.3c-0.1 0.2-0.050 0.45 0.15 0.6 0.1 0.050 0.2 0.1 0.3 0.1s0.25-0.050 0.3-0.1l12-10c0.15-0.15 0.2-0.35 0.15-0.55-0.050-0.25-0.25-0.4-0.45-0.4h-3.050l4.95-7.2c0.1-0.15 0.15-0.35 0.050-0.55z"></path>
    <path fill="#f5f5f5" d="M23.45 7.75c-0.1-0.15-0.25-0.25-0.45-0.25h-8.5c-0.2 0-0.35 0.1-0.45 0.3l-4 8c-0.1 0.15-0.050 0.35 0 0.5 0.1 0.15 0.25 0.25 0.45 0.25h2.75l-4.2 9.3c-0.1 0.2-0.050 0.45 0.15 0.6 0.1 0.050 0.2 0.1 0.3 0.1s0.25-0.050 0.3-0.1l12-10c0.15-0.15 0.2-0.35 0.15-0.55-0.050-0.25-0.25-0.4-0.45-0.4h-3.050l4.95-7.2c0.1-0.15 0.15-0.35 0.050-0.55z"></path>
</svg>